<svg width="476" height="476" viewBox="0 0 476 476" fill="none" xmlns="http://www.w3.org/2000/svg">
<ellipse cx="396.491" cy="75.9963" rx="33.6371" ry="32.9984" fill="#F1A346"/>
<line y1="-6.5" x2="24.8413" y2="-6.5" transform="matrix(0.999905 0.013771 -0.0143091 0.999898 326.159 80.9961)" stroke="#F1A346" stroke-width="13"/>
<line y1="-6.5" x2="24.8413" y2="-6.5" transform="matrix(0.999905 0.013771 -0.0143091 0.999898 441.341 80.9961)" stroke="#F1A346" stroke-width="13"/>
<ellipse rx="33.4981" ry="33.1396" transform="matrix(0.8872 0.461384 -0.475402 0.879769 396.454 76.1443)" fill="#F1A346"/>
<line y1="-6.5" x2="24.7389" y2="-6.5" transform="matrix(0.880513 0.473557 -0.487943 0.873133 331.926 48.2457)" stroke="#F1A346" stroke-width="13"/>
<line y1="-6.5" x2="24.7389" y2="-6.5" transform="matrix(0.880513 0.473557 -0.487943 0.873133 433.692 101.169)" stroke="#F1A346" stroke-width="13"/>
<ellipse rx="33.1787" ry="33.4593" transform="matrix(0.536743 0.843746 -0.852863 0.522135 396.34 76.2642)" fill="#F1A346"/>
<line y1="-6.5" x2="24.5037" y2="-6.5" transform="matrix(0.524616 0.851054 -0.860252 0.510339 354.78 20.3776)" stroke="#F1A346" stroke-width="13"/>
<line y1="-6.5" x2="24.5037" y2="-6.5" transform="matrix(0.524616 0.851054 -0.860252 0.510339 415.76 116.237)" stroke="#F1A346" stroke-width="13"/>
<ellipse rx="32.9985" ry="33.6371" transform="matrix(0.0108482 0.999941 -0.999946 0.0104401 396.173 76.312)" fill="#F1A346"/>
<line y1="-6.5" x2="24.3697" y2="-6.5" transform="matrix(-0.00346056 0.999988 -1 -0.00333175 390.328 7.37253)" stroke="#F1A346" stroke-width="13"/>
<line y1="-6.5" x2="24.3697" y2="-6.5" transform="matrix(-0.00346125 0.999988 -1 -0.00333109 391.554 120.361)" stroke="#F1A346" stroke-width="13"/>
<ellipse rx="33.1665" ry="33.4714" transform="matrix(-0.518486 0.855086 -0.863699 -0.504008 396.005 76.2678)" fill="#F1A346"/>
<line y1="-6.5" x2="24.4947" y2="-6.5" transform="matrix(-0.530669 0.847861 -0.856403 -0.515853 427.58 14.413)" stroke="#F1A346" stroke-width="13"/>
<line y1="-6.5" x2="24.4947" y2="-6.5" transform="matrix(-0.530669 0.847861 -0.856403 -0.515853 368.696 111.525)" stroke="#F1A346" stroke-width="13"/>
<ellipse rx="33.4928" ry="33.1449" transform="matrix(-0.882623 0.470081 -0.484209 -0.874952 395.886 76.1471)" fill="#F1A346"/>
<line y1="-6.5" x2="24.735" y2="-6.5" transform="matrix(-0.889265 0.457881 -0.47164 -0.881532 455.265 38.8331)" stroke="#F1A346" stroke-width="13"/>
<line y1="-6.5" x2="24.735" y2="-6.5" transform="matrix(-0.889265 0.457881 -0.47164 -0.881532 354.039 92.7455)" stroke="#F1A346" stroke-width="13"/>
<path d="M467.842 274.588C463.339 274.588 459.688 278.17 459.688 282.587V289.977H406.546V198.501H409.371C412.556 198.501 415.45 196.683 416.781 193.843C418.112 191.003 417.634 187.663 415.559 185.292L368.444 131.44C366.894 129.669 364.636 128.65 362.257 128.65H114.74C112.362 128.65 110.101 129.669 108.552 131.44L61.4377 185.292C59.3635 187.663 58.8864 191.003 60.2166 193.843C61.5468 196.683 64.4406 198.501 67.626 198.501H70.4505V289.976H17.3089V282.586C17.3089 278.169 13.6578 274.587 9.15445 274.587C4.65116 274.587 1 278.169 1 282.586V297.976C1 325.884 4.47889 349.014 11.3409 366.723C12.5783 369.917 15.676 371.882 18.9643 371.882C19.9275 371.882 20.9071 371.714 21.8601 371.358C26.0698 369.789 28.1859 365.168 26.5856 361.039C21.0752 346.816 17.9959 328.321 17.4119 305.976H459.586C459.002 328.322 455.923 346.817 450.413 361.038C448.813 365.167 450.928 369.788 455.138 371.358C459.351 372.927 464.059 370.852 465.657 366.722C472.518 349.014 475.997 325.884 475.997 297.976V282.586C475.997 278.17 472.346 274.588 467.842 274.588ZM118.488 144.648H358.509L391.626 182.501H85.3701L118.488 144.648ZM86.7594 198.501H390.238V289.976H86.7594V198.501Z" fill="black"/>
<path d="M158.551 224.925C154.048 224.925 150.397 228.507 150.397 232.925V253.736C150.397 258.154 154.048 261.735 158.551 261.735C163.055 261.735 166.706 258.154 166.706 253.736V232.925C166.706 228.507 163.056 224.925 158.551 224.925Z" fill="black"/>
<path d="M238.498 224.925C233.995 224.925 230.344 228.507 230.344 232.925V253.736C230.344 258.154 233.995 261.735 238.498 261.735C243.002 261.735 246.653 258.154 246.653 253.736V232.925C246.653 228.507 243.002 224.925 238.498 224.925Z" fill="black"/>
<path d="M318.446 224.925C313.943 224.925 310.291 228.507 310.291 232.925V253.736C310.291 258.154 313.943 261.735 318.446 261.735C322.949 261.735 326.6 258.154 326.6 253.736V232.925C326.6 228.507 322.949 224.925 318.446 224.925Z" fill="black"/>
<path d="M467.842 386.881C455.255 386.881 443.709 381.138 436.165 371.122C434.628 369.081 432.194 367.877 429.607 367.877C429.605 367.877 429.602 367.877 429.599 367.877C427.01 367.879 424.575 369.088 423.04 371.135C415.641 380.995 403.816 386.881 391.406 386.881C378.817 386.881 367.272 381.138 359.73 371.123C358.192 369.081 355.758 367.877 353.17 367.877C350.582 367.877 348.149 369.081 346.612 371.122C339.068 381.138 327.522 386.881 314.935 386.881C302.372 386.881 290.838 381.138 283.291 371.121C281.754 369.081 279.32 367.877 276.733 367.877C274.147 367.877 271.713 369.081 270.175 371.122C262.632 381.138 251.085 386.881 238.498 386.881C226.088 386.881 214.262 380.995 206.862 371.134C205.329 369.091 202.898 367.882 200.311 367.877C200.306 367.877 200.301 367.877 200.296 367.877C197.715 367.877 195.286 369.076 193.748 371.109C186.166 381.132 174.616 386.88 162.062 386.88C149.652 386.88 137.827 380.994 130.426 371.133C128.891 369.087 126.456 367.878 123.867 367.876C123.865 367.876 123.862 367.876 123.86 367.876C121.273 367.876 118.839 369.08 117.302 371.122C109.869 380.989 98.0145 386.88 85.5882 386.88C73.2107 386.88 61.3807 380.989 53.9448 371.12C52.4067 369.079 49.9736 367.876 47.3866 367.876C44.7996 367.876 42.3665 369.081 40.8294 371.122C33.2876 381.138 21.7419 386.881 9.15445 386.881C4.65116 386.881 1 390.463 1 394.881C1 399.299 4.65116 402.881 9.15445 402.881C23.4023 402.881 37.1181 397.401 47.3897 387.887C57.6602 397.402 71.3627 402.881 85.5902 402.881C99.8534 402.881 113.578 397.404 123.853 387.895C134.103 397.404 147.808 402.881 162.064 402.881C176.52 402.881 190.018 397.517 200.305 387.908C210.554 397.41 224.252 402.881 238.502 402.881C252.748 402.881 266.463 397.401 276.736 387.887C287.006 397.402 300.71 402.881 314.937 402.881C329.185 402.881 342.9 397.401 353.173 387.887C363.444 397.401 377.159 402.881 391.408 402.881C405.663 402.881 419.368 397.404 429.617 387.895C439.889 397.405 453.6 402.881 467.843 402.881C472.347 402.881 475.998 399.299 475.998 394.881C475.998 390.463 472.346 386.881 467.842 386.881Z" fill="#77B1D1"/>
<path d="M467.842 459.101C455.255 459.101 443.709 453.357 436.166 443.342C434.628 441.3 432.194 440.096 429.607 440.096C429.605 440.096 429.602 440.096 429.599 440.096C427.01 440.098 424.575 441.308 423.039 443.354C415.641 453.214 403.816 459.101 391.406 459.101C378.817 459.101 367.272 453.357 359.73 443.342C358.192 441.301 355.759 440.096 353.17 440.096C350.582 440.096 348.149 441.3 346.612 443.342C339.068 453.357 327.522 459.101 314.935 459.101C302.372 459.101 290.838 453.356 283.292 443.34C281.754 441.3 279.321 440.096 276.733 440.096C274.147 440.096 271.713 441.301 270.175 443.342C262.632 453.357 251.085 459.101 238.498 459.101C226.088 459.101 214.261 453.213 206.863 443.354C205.33 441.31 202.898 440.101 200.311 440.096C200.306 440.096 200.301 440.096 200.296 440.096C197.715 440.096 195.285 441.295 193.747 443.329C186.165 453.351 174.616 459.1 162.062 459.1C149.652 459.1 137.826 453.212 130.428 443.353C128.892 441.306 126.457 440.097 123.867 440.095C123.865 440.095 123.862 440.095 123.86 440.095C121.273 440.095 118.839 441.299 117.302 443.341C109.869 453.208 98.0146 459.1 85.5882 459.1C73.2097 459.1 61.3807 453.208 53.9449 443.339C52.4067 441.299 49.9736 440.095 47.3866 440.095C44.7996 440.095 42.3665 441.3 40.8294 443.341C33.2866 453.356 21.7399 459.1 9.15244 459.1C4.64914 459.1 0.997986 462.682 0.997986 467.1C0.997986 471.517 4.64914 475.099 9.15244 475.099C23.4003 475.099 37.1161 469.619 47.3876 460.105C57.6582 469.62 71.3607 475.099 85.5882 475.099C99.8524 475.099 113.576 469.622 123.851 460.113C134.101 469.622 147.806 475.099 162.062 475.099C176.519 475.099 190.016 469.735 200.303 460.127C210.551 469.627 224.251 475.099 238.5 475.099C252.746 475.099 266.462 469.619 276.734 460.105C287.004 469.62 300.707 475.099 314.935 475.099C329.183 475.099 342.898 469.619 353.17 460.106C363.442 469.619 377.157 475.099 391.406 475.099C405.662 475.099 419.366 469.622 429.615 460.114C439.887 469.623 453.597 475.099 467.841 475.099C472.345 475.099 475.996 471.517 475.996 467.1C475.996 462.682 472.346 459.101 467.842 459.101Z" fill="#77B1D1"/>
</svg>
