<svg width="296" height="298" viewBox="0 0 296 298" fill="none" xmlns="http://www.w3.org/2000/svg">
<rect width="296" height="296" fill="white"/>
<rect x="11" y="173" width="207" height="25" fill="#77B1D1"/>
<path d="M290.664 173.038C284.884 162.371 275.011 154.6 262.865 151.156C258.739 149.986 254.49 149.392 250.236 149.392C242.85 149.392 235.762 151.184 229.447 154.389C229.468 151.063 229.451 147.947 229.434 145.061C229.424 143.295 229.414 141.607 229.414 140C229.414 135.582 225.832 132 221.414 132H8.04199C3.62399 132 0.0419865 135.582 0.0419865 140C0.0419865 141.606 0.0319865 143.295 0.0219865 145.061C-0.157014 176.289 -0.490017 234.415 50.848 295.165C52.369 296.963 54.604 298.001 56.958 298.001H172.497C174.852 298.001 177.087 296.963 178.607 295.165C183.406 289.487 187.752 283.831 191.69 278.219C202.262 276.608 276.914 263.379 293.67 209.448C297.602 196.8 296.533 183.869 290.664 173.038ZM60.71 282.001C16.927 228.523 15.87 178.937 16.007 148.001H213.45C213.587 178.936 212.53 228.523 168.747 282.001H60.71ZM278.393 204.699C267.87 238.565 226.311 253.576 203.536 259.374C221.271 227.624 226.931 198.055 228.688 174.495C234.251 168.833 241.956 165.392 250.236 165.392C253.014 165.392 255.795 165.782 258.5 166.548C266.462 168.806 272.889 173.818 276.597 180.66C280.449 187.77 281.07 196.082 278.393 204.699Z" fill="black"/>
<path d="M72.729 107.001C72.729 111.419 76.311 115.001 80.729 115.001C85.147 115.001 88.729 111.419 88.729 107.001C88.729 104.539 89.143 103.66 89.967 101.907C91.133 99.43 92.729 96.039 92.729 90C92.729 83.961 91.133 80.569 89.967 78.093C89.143 76.34 88.729 75.461 88.729 72.999C88.729 70.538 89.143 69.658 89.967 67.906C91.133 65.43 92.729 62.039 92.729 56.001C92.729 51.583 89.147 48.001 84.729 48.001C80.311 48.001 76.729 51.583 76.729 56.001C76.729 58.462 76.315 59.342 75.491 61.094C74.325 63.57 72.729 66.961 72.729 72.999C72.729 79.037 74.325 82.429 75.491 84.905C76.315 86.658 76.729 87.537 76.729 90C76.729 92.462 76.315 93.342 75.491 95.095C74.324 97.571 72.729 100.963 72.729 107.001Z" fill="#F1A346"/>
<path d="M104.729 107.001C104.729 111.419 108.311 115.001 112.729 115.001C117.147 115.001 120.729 111.419 120.729 107.001C120.729 104.539 121.143 103.66 121.967 101.907C123.133 99.43 124.729 96.039 124.729 90C124.729 83.961 123.133 80.569 121.967 78.093C121.143 76.34 120.729 75.461 120.729 72.999C120.729 70.538 121.143 69.658 121.967 67.906C123.133 65.43 124.729 62.039 124.729 56.001C124.729 51.583 121.147 48.001 116.729 48.001C112.311 48.001 108.729 51.583 108.729 56.001C108.729 58.462 108.315 59.342 107.491 61.094C106.325 63.57 104.729 66.961 104.729 72.999C104.729 79.037 106.325 82.429 107.491 84.905C108.315 86.658 108.729 87.537 108.729 90C108.729 92.462 108.315 93.342 107.491 95.095C106.324 97.571 104.729 100.963 104.729 107.001Z" fill="#F1A346"/>
<path d="M136.729 107.001C136.729 111.419 140.311 115.001 144.729 115.001C149.147 115.001 152.729 111.419 152.729 107.001C152.729 104.539 153.143 103.66 153.967 101.907C155.133 99.43 156.729 96.039 156.729 90C156.729 83.961 155.133 80.569 153.967 78.093C153.143 76.34 152.729 75.461 152.729 72.999C152.729 70.538 153.143 69.658 153.967 67.906C155.133 65.43 156.729 62.039 156.729 56.001C156.729 51.583 153.147 48.001 148.729 48.001C144.311 48.001 140.729 51.583 140.729 56.001C140.729 58.462 140.315 59.342 139.491 61.094C138.325 63.57 136.729 66.961 136.729 72.999C136.729 79.037 138.325 82.429 139.491 84.905C140.315 86.658 140.729 87.537 140.729 90C140.729 92.462 140.315 93.342 139.491 95.095C138.324 97.571 136.729 100.963 136.729 107.001Z" fill="#F1A346"/>
</svg>
